<svg id="mermaid-1626118735882" width="100%" xmlns="http://www.w3.org/2000/svg" xmlns:xlink="http://www.w3.org/1999/xlink" height="477.546875" style="max-width: 444.046875px;" viewBox="-20 -20 444.046875 477.546875"><style>#mermaid-1626118735882{font-family:"trebuchet ms",verdana,arial,sans-serif;font-size:16px;fill:#333;}#mermaid-1626118735882 .error-icon{fill:#552222;}#mermaid-1626118735882 .error-text{fill:#552222;stroke:#552222;}#mermaid-1626118735882 .edge-thickness-normal{stroke-width:2px;}#mermaid-1626118735882 .edge-thickness-thick{stroke-width:3.5px;}#mermaid-1626118735882 .edge-pattern-solid{stroke-dasharray:0;}#mermaid-1626118735882 .edge-pattern-dashed{stroke-dasharray:3;}#mermaid-1626118735882 .edge-pattern-dotted{stroke-dasharray:2;}#mermaid-1626118735882 .marker{fill:#333333;stroke:#333333;}#mermaid-1626118735882 .marker.cross{stroke:#333333;}#mermaid-1626118735882 svg{font-family:"trebuchet ms",verdana,arial,sans-serif;font-size:16px;}#mermaid-1626118735882 g.classGroup text{fill:#9370DB;fill:#131300;stroke:none;font-family:"trebuchet ms",verdana,arial,sans-serif;font-size:10px;}#mermaid-1626118735882 g.classGroup text .title{font-weight:bolder;}#mermaid-1626118735882 .classTitle{font-weight:bolder;}#mermaid-1626118735882 .node rect,#mermaid-1626118735882 .node circle,#mermaid-1626118735882 .node ellipse,#mermaid-1626118735882 .node polygon,#mermaid-1626118735882 .node path{fill:#ECECFF;stroke:#9370DB;stroke-width:1px;}#mermaid-1626118735882 .divider{stroke:#9370DB;stroke:1;}#mermaid-1626118735882 g.clickable{cursor:pointer;}#mermaid-1626118735882 g.classGroup rect{fill:#ECECFF;stroke:#9370DB;}#mermaid-1626118735882 g.classGroup line{stroke:#9370DB;stroke-width:1;}#mermaid-1626118735882 .classLabel .box{stroke:none;stroke-width:0;fill:#ECECFF;opacity:0.5;}#mermaid-1626118735882 .classLabel .label{fill:#9370DB;font-size:10px;}#mermaid-1626118735882 .relation{stroke:#333333;stroke-width:1;fill:none;}#mermaid-1626118735882 .dashed-line{stroke-dasharray:3;}#mermaid-1626118735882 #compositionStart,#mermaid-1626118735882 .composition{fill:#333333 !important;stroke:#333333 !important;stroke-width:1;}#mermaid-1626118735882 #compositionEnd,#mermaid-1626118735882 .composition{fill:#333333 !important;stroke:#333333 !important;stroke-width:1;}#mermaid-1626118735882 #dependencyStart,#mermaid-1626118735882 .dependency{fill:#333333 !important;stroke:#333333 !important;stroke-width:1;}#mermaid-1626118735882 #dependencyStart,#mermaid-1626118735882 .dependency{fill:#333333 !important;stroke:#333333 !important;stroke-width:1;}#mermaid-1626118735882 #extensionStart,#mermaid-1626118735882 .extension{fill:#333333 !important;stroke:#333333 !important;stroke-width:1;}#mermaid-1626118735882 #extensionEnd,#mermaid-1626118735882 .extension{fill:#333333 !important;stroke:#333333 !important;stroke-width:1;}#mermaid-1626118735882 #aggregationStart,#mermaid-1626118735882 .aggregation{fill:#ECECFF !important;stroke:#333333 !important;stroke-width:1;}#mermaid-1626118735882 #aggregationEnd,#mermaid-1626118735882 .aggregation{fill:#ECECFF !important;stroke:#333333 !important;stroke-width:1;}#mermaid-1626118735882 .edgeTerminals{font-size:11px;}#mermaid-1626118735882:root{--mermaid-font-family:"trebuchet ms",verdana,arial,sans-serif;}#mermaid-1626118735882 class{fill:apa;}</style><g/><defs><marker id="extensionStart" class="extension" refX="0" refY="7" markerWidth="190" markerHeight="240" orient="auto"><path d="M 1,7 L18,13 V 1 Z"/></marker></defs><defs><marker id="extensionEnd" refX="19" refY="7" markerWidth="20" markerHeight="28" orient="auto"><path d="M 1,1 V 13 L18,7 Z"/></marker></defs><defs><marker id="compositionStart" class="extension" refX="0" refY="7" markerWidth="190" markerHeight="240" orient="auto"><path d="M 18,7 L9,13 L1,7 L9,1 Z"/></marker></defs><defs><marker id="compositionEnd" refX="19" refY="7" markerWidth="20" markerHeight="28" orient="auto"><path d="M 18,7 L9,13 L1,7 L9,1 Z"/></marker></defs><defs><marker id="aggregationStart" class="extension" refX="0" refY="7" markerWidth="190" markerHeight="240" orient="auto"><path d="M 18,7 L9,13 L1,7 L9,1 Z"/></marker></defs><defs><marker id="aggregationEnd" refX="19" refY="7" markerWidth="20" markerHeight="28" orient="auto"><path d="M 18,7 L9,13 L1,7 L9,1 Z"/></marker></defs><defs><marker id="dependencyStart" class="extension" refX="0" refY="7" markerWidth="190" markerHeight="240" orient="auto"><path d="M 5,7 L9,13 L1,7 L9,1 Z"/></marker></defs><defs><marker id="dependencyEnd" refX="19" refY="7" markerWidth="20" markerHeight="28" orient="auto"><path d="M 18,7 L9,13 L14,7 L9,1 Z"/></marker></defs><g id="classid-PaymentCommitmentState-8" class="classGroup" transform="translate(199.796875,355.03125 )"><rect x="0" y="0" width="204.25" height="82.515625" class=" "/><text y="15" x="0"><tspan x="68.625">«enumeration»</tspan><tspan class="title" dy="10" x="38.3515625">PaymentCommitmentState</tspan></text><line x1="0" y1="31.671875" y2="31.671875" x2="204.25"/><text x="5" y="41.671875" fill="white" class="classText"><tspan x="5">INITIATED</tspan><tspan x="5" dy="10">CONTINGENT</tspan><tspan x="5" dy="10">EFFECTIVE</tspan><tspan x="5" dy="10">DISCHARGED</tspan></text><line x1="0" y1="78.34375" y2="78.34375" x2="204.25"/><text x="5" y="93.34375" fill="white" class="classText"/></g><g id="classid-DischargeState-9" class="classGroup" transform="translate(0,355.03125 )"><rect x="0" y="0" width="149.796875" height="82.515625" class=" "/><text y="15" x="0"><tspan x="41.3984375">«enumeration»</tspan><tspan class="title" dy="10" x="38.3515625">DischargeState</tspan></text><line x1="0" y1="31.671875" y2="31.671875" x2="149.796875"/><text x="5" y="41.671875" fill="white" class="classText"><tspan x="5">OPEN</tspan><tspan x="5" dy="10">PAID</tspan><tspan x="5" dy="10">PAST_DUE</tspan><tspan x="5" dy="10">CANCELLED</tspan></text><line x1="0" y1="78.34375" y2="78.34375" x2="149.796875"/><text x="5" y="93.34375" fill="white" class="classText"/></g><g id="classid-DistributedLedgerPaymentCommitment-10" class="classGroup" transform="translate(71.43358612060547,132.515625 )"><rect x="0" y="0" width="233.953125" height="172.515625" class=" "/><text y="15" x="0"><tspan x="99.32813262939453">«entity»</tspan><tspan class="title" dy="10" x="22.50782012939453">DistributedLedgerPaymentCommitment</tspan></text><line x1="0" y1="31.671875" y2="31.671875" x2="233.95314025878906"/><text x="5" y="41.671875" fill="white" class="classText"><tspan x="5">+UUID id</tspan><tspan x="5" dy="10">+String originatorId</tspan><tspan x="5" dy="10">+String referenceId</tspan><tspan x="5" dy="10">+String committer</tspan><tspan x="5" dy="10">+String committee</tspan><tspan x="5" dy="10">+String currency</tspan><tspan x="5" dy="10">+String commitmentDate</tspan><tspan x="5" dy="10">+String dueDate</tspan><tspan x="5" dy="10">+PaymentCommitmentState commitmentState</tspan><tspan x="5" dy="10">+String dischargeDate</tspan><tspan x="5" dy="10">+DischargeState dischargeState</tspan><tspan x="5" dy="10">+String dischargeDate</tspan><tspan x="5" dy="10">+String applicableRules</tspan></text><line x1="0" y1="168.34375" y2="168.34375" x2="233.95314025878906"/><text x="5" y="183.34375" fill="white" class="classText"/></g><g id="classid-GreenCommodityListing-11" class="classGroup" transform="translate(79.88671875,0 )"><rect x="0" y="0" width="217.046875" height="82.515625" class=" "/><text y="15" x="0"><tspan x="90.875">«entity»</tspan><tspan class="title" dy="10" x="50.1796875">GreenCommodityListing</tspan></text><line x1="0" y1="31.671875" y2="31.671875" x2="217.046875"/><text x="5" y="41.671875" fill="white" class="classText"><tspan x="5">+UUID id</tspan><tspan x="5" dy="10">+String originatorDid</tspan><tspan x="5" dy="10">+Int32 itemCount</tspan><tspan x="5" dy="10">+DistributedLedgerPaymentCommitment dlpc</tspan></text><line x1="0" y1="78.34375" y2="78.34375" x2="217.046875"/><text x="5" y="93.34375" fill="white" class="classText"/></g><path d="M100.40489772049014,305.03125L96.15382101707512,309.1979166666667C91.9027443136601,313.3645833333333,83.40059090683005,321.6979166666667,79.14951420341502,330.03125C74.8984375,338.3645833333333,74.8984375,346.6979166666667,74.8984375,350.8645833333333L74.8984375,355.03125" id="edge0" class="relation" marker-end="url(#compositionEnd)"/><path d="M276.4154147795099,305.03125L280.66649148292487,309.1979166666667C284.9175681863399,313.3645833333333,293.41972159317,321.6979166666667,297.67079829658496,330.03125C301.921875,338.3645833333333,301.921875,346.6979166666667,301.921875,350.8645833333333L301.921875,355.03125" id="edge1" class="relation" marker-end="url(#compositionEnd)"/><path d="M188.41015625,82.515625L188.41015625,86.68229166666667C188.41015625,90.84895833333333,188.41015625,99.18229166666667,188.41015625,107.515625C188.41015625,115.84895833333333,188.41015625,124.18229166666667,188.41015625,128.34895833333334L188.41015625,132.515625" id="edge2" class="relation" marker-end="url(#compositionEnd)"/></svg>